# xmcd
#
# Track frame offsets: 
#        182
#        16802
#        35752
#        57140
#        109687
#        123725
#        134905
#        149937
#        165552
#        177967
#        194540
#        206150
#        222395
#
# Disc length: 3257 seconds
#
# Revision: 0
# Processed by: cddbd v1.4PL0 Copyright (c) Steve Scherf et al.
# Submitted via: ExactAudioCopy v0.90b3
#
DISCID=d60cb70d
DTITLE=The Judds - Vol.2 (Live USA)
DYEAR=1900
DGENRE=Country
TTITLE0=Change Of Heart
TTITLE1=Why Not Me
TTITLE2=Grandpa
TTITLE3=Love Can Build A Bridge
TTITLE4=Girls Night Out
TTITLE5=Blue Nun Cafe
TTITLE6=Bye Bye Baby Blues
TTITLE7=Drops Of Water
TTITLE8=My Baby's Gone
TTITLE9=John Deere Tractor
TTITLE10=Rip It Up
TTITLE11=Turn It Loose
TTITLE12=Medley (Blue Nun Cafe-Rip It Up-Girls Night Out-My Baby's Gon
TTITLE12=e)
EXTD=
EXTT0=
EXTT1=
EXTT2=
EXTT3=
EXTT4=
EXTT5=
EXTT6=
EXTT7=
EXTT8=
EXTT9=
EXTT10=
EXTT11=
EXTT12=
PLAYORDER=
